nColumns=19
nRows=101
DataType=double
version=3
OpenSimVersion=4.1
endheader
time	ground_force_calcn_r_vx	ground_force_calcn_r_vy	ground_force_calcn_r_vz	ground_force_calcn_r_px	ground_force_calcn_r_py	ground_force_calcn_r_pz	ground_force_calcn_r_mx	ground_force_calcn_r_my	ground_force_calcn_r_mz	ground_force_calcn_l_vx	ground_force_calcn_l_vy	ground_force_calcn_l_vz	ground_force_calcn_l_px	ground_force_calcn_l_py	ground_force_calcn_l_pz	ground_force_calcn_l_mx	ground_force_calcn_l_my	ground_force_calcn_l_mz
0	-0.747757	179.955	25.7861	0.0868933	0	-0.180669	-0.00525826	1.26545	0.181329	0	0	0	0	0	0	0	0	0
0.01	-7.81285	209.149	26.9094	0.0946261	0	-0.180203	-0.0372867	0.998161	0.128424	0	0	0	0	0	0	0	0	0
0.02	-15.9997	242.98	27.6215	0.103057	0	-0.17929	-0.0472495	0.717558	0.0815705	0	0	0	0	0	0	0	0	0
0.03	-25.1656	281.04	27.7034	0.110841	0	-0.178102	-0.0385991	0.431061	0.0424916	0	0	0	0	0	0	0	0	0
0.04	-35.1051	322.581	26.9249	0.118003	0	-0.17672	-0.015707	0.144332	0.012047	0	0	0	0	0	0	0	0	0
0.05	-45.5613	366.545	25.0874	0.124605	0	-0.175203	0.0170248	-0.136966	-0.00937436	0	0	0	0	0	0	0	0	0
0.06	-56.206	411.65	22.0687	0.130711	0	-0.173601	0.0553164	-0.405135	-0.0217194	0	0	0	0	0	0	0	0	0
0.07	-66.6341	456.485	17.8633	0.136365	0	-0.171956	0.0947411	-0.649037	-0.0253982	0	0	0	0	0	0	0	0	0
0.08	-76.4031	499.613	12.6025	0.141601	0	-0.17031	0.130734	-0.854896	-0.0215643	0	0	0	0	0	0	0	0	0
0.09	-85.095	539.721	6.53548	0.146451	0	-0.168695	0.159265	-1.01015	-0.0122319	0	0	0	0	0	0	0	0	0
0.1	-92.3886	575.798	-0.0334751	0.150957	0	-0.16713	0.177969	-1.10917	6.44836e-05	0	0	0	0	0	0	0	0	0
0.11	-98.1145	607.23	-6.78258	0.155172	0	-0.165626	0.186389	-1.15356	0.0128849	0	0	0	0	0	0	0	0	0
0.12	-102.229	633.781	-13.3746	0.159147	0	-0.164196	0.185232	-1.14837	0.0242339	0	0	0	0	0	0	0	0	0
0.13	-104.781	655.487	-19.4842	0.16292	0	-0.162851	0.176041	-1.10128	0.0327352	0	0	0	0	0	0	0	0	0
0.14	-105.885	672.554	-24.8451	0.166527	0	-0.161599	0.1611	-1.02327	0.0378011	0	0	0	0	0	0	0	0	0
0.15	-105.696	685.272	-29.2789	0.169994	0	-0.160444	0.142948	-0.92679	0.039598	0	0	0	0	0	0	0	0	0
0.16	-104.38	693.954	-32.6971	0.17334	0	-0.159385	0.123834	-0.823291	0.0387911	0	0	0	0	0	0	0	0	0
0.17	-102.096	698.899	-35.0875	0.176581	0	-0.158417	0.105485	-0.722097	0.0362521	0	0	0	0	0	0	0	0	0
0.18	-98.9892	700.381	-36.497	0.179731	0	-0.157531	0.089089	-0.630335	0.0328469	0	0	0	0	0	0	0	0	0
0.19	-95.1973	698.678	-37.015	0.182805	0	-0.156717	0.0753954	-0.553346	0.0293155	0	0	0	0	0	0	0	0	0
0.2	-90.8528	694.1	-36.7592	0.185818	0	-0.155964	0.0648262	-0.495262	0.0262288	0	0	0	0	0	0	0	0	0
0.21	-86.0839	687.025	-35.8618	0.188785	0	-0.155261	0.0575909	-0.459626	0.0239918	0	0	0	0	0	0	0	0	0
0.22	-81.0175	677.896	-34.4539	0.19172	0	-0.1546	0.0537689	-0.4499	0.022866	0	0	0	0	0	0	0	0	0
0.23	-75.7752	667.222	-32.6549	0.194635	0	-0.153977	0.0533146	-0.46945	0.0229757	0	0	0	0	0	0	0	0	0
0.24	-70.4693	655.549	-30.5703	0.197539	0	-0.153393	0.056034	-0.521263	0.0243082	0	0	0	0	0	0	0	0	0
0.25	-65.1966	643.439	-28.2953	0.200433	0	-0.152849	0.0615696	-0.607643	0.0267212	0	0	0	0	0	0	0	0	0
0.26	-60.0359	631.43	-25.9222	0.203316	0	-0.15235	0.0693944	-0.729858	0.029963	0	0	0	0	0	0	0	0	0
0.27	-55.0444	620.01	-23.5448	0.20618	0	-0.151897	0.0788306	-0.887933	0.0337192	0	0	0	0	0	0	0	0	0
0.28	-50.2527	609.594	-21.2577	0.209014	0	-0.151491	0.089084	-1.08064	0.0376839	0	0	0	0	0	0	0	0	0
0.29	-45.6638	600.514	-19.1547	0.211805	0	-0.151128	0.0992887	-1.30572	0.0416488	0	0	0	0	0	0	0	0	0
0.3	-41.2554	593.02	-17.3269	0.214542	0	-0.150805	0.108552	-1.56037	0.0455909	0	0	0	0	0	0	0	0	0
0.31	-36.9853	587.288	-15.859	0.217214	0	-0.150514	0.115976	-1.84157	0.0497295	0	0	0	0	0	0	0	0	0
0.32	-32.7975	583.435	-14.8249	0.219818	0	-0.150247	0.120648	-2.1462	0.0545344	0	0	0	0	0	0	0	0	0
0.33	-28.6293	581.541	-14.2835	0.222354	0	-0.149999	0.12164	-2.47086	0.060688	0	0	0	0	0	0	0	0	0
0.34	-24.4179	581.659	-14.2756	0.224826	0	-0.149769	0.118028	-2.81154	0.0690034	0	0	0	0	0	0	0	0	0
0.35	-20.1075	583.837	-14.8229	0.227249	0	-0.149555	0.108937	-3.16307	0.0803068	0	0	0	0	0	0	0	0	0
0.36	-15.6563	588.121	-15.9299	0.229645	0	-0.149365	0.0936751	-3.51885	0.0953118	0	0	0	0	0	0	0	0	0
0.37	-11.0405	594.553	-17.5852	0.232044	0	-0.149205	0.0718774	-3.87073	0.114485	0	0	0	0	0	0	0	0	0
0.38	-6.25359	603.161	-19.7623	0.234486	0	-0.149082	0.043641	-4.20919	0.137912	0	0	0	0	0	0	0	0	0
0.39	-1.3017	613.933	-22.4179	0.237011	0	-0.149005	0.00959148	-4.5237	0.165184	0	0	0	0	0	0	0	0	0
0.4	3.8049	626.803	-25.4902	0.239655	0	-0.148982	-0.0291577	-4.80331	0.195336	0	0	0	0	0	0	0	0	0
0.41	9.05788	641.642	-28.8957	0.242449	0	-0.149019	-0.0711125	-5.03747	0.226857	0	0	0	0	0	0	0	0	0
0.42	14.4515	658.263	-32.53	0.245412	0	-0.14912	-0.11454	-5.21729	0.257828	0	0	0	0	0	0	0	0	0
0.43	19.9842	676.409	-36.2722	0.24855	0	-0.149293	-0.157668	-5.3366	0.286173	0	0	0	0	0	0	0	0	0
0.44	25.663	695.739	-39.9945	0.251854	0	-0.149538	-0.198905	-5.39244	0.309984	0	0	0	0	0	0	0	0	0
0.45	31.5053	715.799	-43.5716	0.255303	0	-0.149853	-0.237025	-5.38519	0.327803	0	0	0	0	0	0	0	0	0
0.46	37.5381	736.004	-46.8903	0.258863	0	-0.150234	-0.271249	-5.31833	0.338827	0	0	0	0	0	0	0	0	0
0.47	43.7918	755.636	-49.8578	0.26249	0	-0.150676	-0.301232	-5.19783	0.342959	0	0	0	0	0	0	0	0	0
0.48	50.286	773.855	-52.4072	0.266142	0	-0.151168	-0.326933	-5.03119	0.340723	0	0	0	0	0	0	0	0	0
0.49	57.0131	789.734	-54.4978	0.269779	0	-0.151698	-0.34846	-4.82679	0.333086	0	0	0	0	0	0	0	0	0
0.5	63.9285	802.303	-56.1056	0.273368	0	-0.152259	-0.366035	-4.59374	0.321243	0	0	0	0	0	0	0	0	0
0.51	70.9483	810.604	-57.2116	0.276883	0	-0.152838	-0.380017	-4.3418	0.30644	0	0	0	0	0	0	0	0	0
0.52	77.9438	813.73	-57.7943	0.28031	0	-0.153433	-0.390938	-4.08137	0.289875	-0.58775	35.352	-8.345	0.719868	0	-0.239051	0.00284941	-0.171387	0.0404566
0.53	84.7357	810.86	-57.8241	0.283643	0	-0.154042	-0.399534	-3.82326	0.272644	-3.28143	59.2563	-9.78064	0.757826	0	-0.258778	0.00608807	-0.109939	0.0181461
0.54	91.0947	801.297	-57.265	0.286885	0	-0.154662	-0.406733	-3.57775	0.255685	-6.99056	88.7158	-11.2095	0.778412	0	-0.269296	0.00874039	-0.110922	0.0140154
0.55	96.7484	784.507	-56.0828	0.290047	0	-0.155298	-0.413522	-3.35315	0.23971	-11.8716	123.882	-12.521	0.791958	0	-0.275976	0.0128641	-0.134239	0.0135678
0.56	101.395	760.171	-54.2584	0.293147	0	-0.155953	-0.420727	-3.15423	0.225138	-18.0637	164.614	-13.5712	0.802039	0	-0.280759	0.0175736	-0.160147	0.013203
0.57	104.732	728.23	-51.7956	0.296208	0	-0.15663	-0.428782	-2.98143	0.212055	-25.6342	210.517	-14.1981	0.810227	0	-0.284508	0.0213043	-0.174958	0.0117999
0.58	106.474	688.938	-48.7273	0.299258	0	-0.157331	-0.437484	-2.83072	0.200212	-34.537	261.025	-14.2458	0.817305	0	-0.287661	0.0221242	-0.167212	0.00912582
0.59	106.375	642.887	-45.1191	0.302328	0	-0.158054	-0.445733	-2.69384	0.189059	-44.5986	315.435	-13.581	0.823686	0	-0.290448	0.0178934	-0.126555	0.00544883
0.6	104.262	591.01	-41.0715	0.305453	0	-0.158798	-0.451478	-2.55922	0.17785	-55.5379	372.883	-12.1023	0.829586	0	-0.293001	0.00656065	-0.0440484	0.00142964
0.61	100.077	534.559	-36.7153	0.30867	0	-0.159555	-0.452068	-2.41472	0.165851	-66.9953	432.321	-9.75003	0.835116	0	-0.295392	-0.0134661	0.086897	-0.00195976
0.62	93.8996	475.049	-32.2038	0.312025	0	-0.160311	-0.444823	-2.25041	0.152556	-78.5595	492.518	-6.52441	0.840333	0	-0.297659	-0.0429426	0.269223	-0.00356641
0.63	85.9721	414.164	-27.6967	0.315571	0	-0.161055	-0.427833	-2.06106	0.13783	-89.7906	552.123	-2.50356	0.845259	0	-0.299821	-0.0814523	0.500851	-0.00227107
0.64	76.6824	353.644	-23.3424	0.319381	0	-0.161773	-0.400507	-1.84706	0.121916	-100.257	609.757	2.15594	0.849904	0	-0.301883	-0.127523	0.775592	0.00274229
0.65	66.5217	295.157	-19.2634	0.323557	0	-0.162458	-0.363728	-1.61386	0.105328	-109.58	664.082	7.23906	0.85428	0	-0.303849	-0.179035	1.085	0.0118274
0.66	56.025	240.175	-15.5444	0.328254	0	-0.163103	-0.319664	-1.37037	0.088692	-117.464	713.868	12.5029	0.858395	0	-0.305716	-0.233573	1.41951	0.0248617
0.67	45.7054	189.872	-12.2309	0.333725	0	-0.163711	-0.271205	-1.12666	0.0725753	-123.696	758.067	17.7078	0.862261	0	-0.307488	-0.288709	1.76934	0.0413304
0.68	35.9979	145.063	-9.33599	0.340406	0	-0.164289	-0.221369	-0.892061	0.0574116	-128.152	795.866	22.6463	0.865889	0	-0.30917	-0.342206	2.12522	0.060473
0.69	27.2232	106.19	-6.85083	0.349117	0	-0.164844	-0.172816	-0.674107	0.0434898	-130.785	826.694	27.1431	0.869295	0	-0.31077	-0.39191	2.47726	0.0813368
0.7	19.5744	73.3738	-4.75598	0.361591	0	-0.165381	-0.127558	-0.478144	0.0309926	-131.61	850.191	31.0442	0.872494	0	-0.312293	-0.435663	2.81435	0.102764
0.71	13.134	46.4626	-3.02713	0.382162	0	-0.165884	-0.0868844	-0.307361	0.0200252	-130.698	866.205	34.23	0.8755	0	-0.313746	-0.471644	3.12584	0.123524
0.72	7.88997	25.0919	-1.63949	0.425429	0	-0.166257	-0.0513033	-0.163157	0.0106605	-128.181	874.791	36.6307	0.87833	0	-0.315134	-0.498636	3.40302	0.142497
0.73	0	0	0	0	0	0	0	0	0	-124.238	876.214	38.2247	0.881006	0	-0.316469	-0.516048	3.63952	0.158774
0.74	0	0	0	0	0	0	0	0	0	-119.082	870.937	39.0305	0.883541	0	-0.317757	-0.523925	3.83187	0.171723
0.75	0	0	0	0	0	0	0	0	0	-112.934	859.601	39.1007	0.885951	0	-0.319006	-0.522901	3.98008	0.181042
0.76	0	0	0	0	0	0	0	0	0	-106.016	843	38.515	0.888243	0	-0.320223	-0.514049	4.08753	0.186751
0.77	0	0	0	0	0	0	0	0	0	-98.5388	822.036	37.3725	0.890424	0	-0.321408	-0.498678	4.1601	0.189132
0.78	0	0	0	0	0	0	0	0	0	-90.7016	797.663	35.7857	0.892497	0	-0.322568	-0.478195	4.20542	0.188669
0.79	0	0	0	0	0	0	0	0	0	-82.6876	770.83	33.8741	0.894461	0	-0.323699	-0.454002	4.23229	0.185988
0.8	0	0	0	0	0	0	0	0	0	-74.6622	742.437	31.7566	0.896321	0	-0.324801	-0.42736	4.24965	0.181772
0.81	0	0	0	0	0	0	0	0	0	-66.7703	713.305	29.5461	0.898078	0	-0.325872	-0.3993	4.2657	0.176692
0.82	0	0	0	0	0	0	0	0	0	-59.1359	684.163	27.3442	0.899742	0	-0.326906	-0.370602	4.28762	0.171365
0.83	0	0	0	0	0	0	0	0	0	-51.8601	655.642	25.2352	0.901323	0	-0.327896	-0.341804	4.32126	0.166323
0.84	0	0	0	0	0	0	0	0	0	-45.0183	628.287	23.2812	0.902832	0	-0.32883	-0.313206	4.37118	0.161974
0.85	0	0	0	0	0	0	0	0	0	-38.6565	602.564	21.5207	0.904281	0	-0.329691	-0.284886	4.44069	0.1586
0.86	0	0	0	0	0	0	0	0	0	-32.7907	578.885	19.9717	0.905682	0	-0.33046	-0.256711	4.53198	0.156354
0.87	0	0	0	0	0	0	0	0	0	-27.4086	557.624	18.6377	0.907048	0	-0.331114	-0.228371	4.64619	0.155291
0.88	0	0	0	0	0	0	0	0	0	-22.4719	539.127	17.5154	0.908398	0	-0.331628	-0.199389	4.78356	0.15541
0.89	0	0	0	0	0	0	0	0	0	-17.9185	523.725	16.6025	0.909752	0	-0.331978	-0.169133	4.94346	0.156711
0.9	0	0	0	0	0	0	0	0	0	-13.6655	511.748	15.9038	0.911136	0	-0.33215	-0.136839	5.12435	0.159252
0.91	0	0	0	0	0	0	0	0	0	-9.61625	503.525	15.435	0.912586	0	-0.332139	-0.101671	5.32367	0.163191
0.92	0	0	0	0	0	0	0	0	0	-5.66757	499.383	15.2234	0.914145	0	-0.331957	-0.0628472	5.53761	0.16881
0.93	0	0	0	0	0	0	0	0	0	-1.71823	499.634	15.3072	0.915858	0	-0.331632	-0.0198113	5.7608	0.176493
0.94	0	0	0	0	0	0	0	0	0	2.3249	504.547	15.7338	0.917777	0	-0.331215	0.0275821	5.98582	0.186661
0.95	0	0	0	0	0	0	0	0	0	6.54337	514.321	16.556	0.919944	0	-0.330765	0.078911	6.20256	0.19966
0.96	0	0	0	0	0	0	0	0	0	11.0043	529.044	17.8284	0.922394	0	-0.330347	0.133076	6.39777	0.2156
0.97	0	0	0	0	0	0	0	0	0	15.7577	548.638	19.6024	0.925142	0	-0.330022	0.188272	6.55511	0.234209
0.98	0	0	0	0	0	0	0	0	0	20.8333	572.816	21.9204	0.928193	0	-0.329839	0.24207	6.65576	0.254701
0.99	0	0	0	0	0	0	0	0	0	26.238	601.073	24.8026	0.931539	0	-0.329828	0.291595	6.68	0.275643
1	0	0	0	0	0	0	0	0	0	31.9519	632.717	28.2251	0.935163	0	-0.329996	0.333774	6.60945	0.294844
